<?xml version="1.0" encoding="UTF-8" standalone="no"?>
<!DOCTYPE svg PUBLIC "-//W3C//DTD SVG 1.1//EN"
 "http://www.w3.org/Graphics/SVG/1.1/DTD/svg11.dtd">
<!-- Generated by graphviz version 2.43.0 (0)
 -->
<!-- Title: snakemake_dag Pages: 1 -->
<svg width="98pt" height="404pt"
 viewBox="0.00 0.00 98.00 404.00" xmlns="http://www.w3.org/2000/svg" xmlns:xlink="http://www.w3.org/1999/xlink">
<g id="graph0" class="graph" transform="scale(1 1) rotate(0) translate(4 400)">
<title>snakemake_dag</title>
<polygon fill="white" stroke="transparent" points="-4,4 -4,-400 94,-400 94,4 -4,4"/>
<!-- 0 -->
<g id="node1" class="node">
<title>0</title>
<path fill="none" stroke="#56d873" stroke-width="2" d="M63.5,-108C63.5,-108 26.5,-108 26.5,-108 20.5,-108 14.5,-102 14.5,-96 14.5,-96 14.5,-84 14.5,-84 14.5,-78 20.5,-72 26.5,-72 26.5,-72 63.5,-72 63.5,-72 69.5,-72 75.5,-78 75.5,-84 75.5,-84 75.5,-96 75.5,-96 75.5,-102 69.5,-108 63.5,-108"/>
<text text-anchor="middle" x="45" y="-87.5" font-family="sans" font-size="10.00">split_luts</text>
</g>
<!-- 5 -->
<g id="node6" class="node">
<title>5</title>
<path fill="none" stroke="#afd856" stroke-width="2" d="M60,-36C60,-36 30,-36 30,-36 24,-36 18,-30 18,-24 18,-24 18,-12 18,-12 18,-6 24,0 30,0 30,0 60,0 60,0 66,0 72,-6 72,-12 72,-12 72,-24 72,-24 72,-30 66,-36 60,-36"/>
<text text-anchor="middle" x="45" y="-15.5" font-family="sans" font-size="10.00">all</text>
</g>
<!-- 0&#45;&gt;5 -->
<g id="edge5" class="edge">
<title>0&#45;&gt;5</title>
<path fill="none" stroke="grey" stroke-width="2" d="M45,-71.7C45,-63.98 45,-54.71 45,-46.11"/>
<polygon fill="grey" stroke="grey" stroke-width="2" points="48.5,-46.1 45,-36.1 41.5,-46.1 48.5,-46.1"/>
</g>
<!-- 1 -->
<g id="node2" class="node">
<title>1</title>
<path fill="none" stroke="#d88d56" stroke-width="2" d="M68.5,-252C68.5,-252 21.5,-252 21.5,-252 15.5,-252 9.5,-246 9.5,-240 9.5,-240 9.5,-228 9.5,-228 9.5,-222 15.5,-216 21.5,-216 21.5,-216 68.5,-216 68.5,-216 74.5,-216 80.5,-222 80.5,-228 80.5,-228 80.5,-240 80.5,-240 80.5,-246 74.5,-252 68.5,-252"/>
<text text-anchor="middle" x="45" y="-231.5" font-family="sans" font-size="10.00">merge_luts</text>
</g>
<!-- 4 -->
<g id="node5" class="node">
<title>4</title>
<path fill="none" stroke="#56c9d8" stroke-width="2" d="M78,-180C78,-180 12,-180 12,-180 6,-180 0,-174 0,-168 0,-168 0,-156 0,-156 0,-150 6,-144 12,-144 12,-144 78,-144 78,-144 84,-144 90,-150 90,-156 90,-156 90,-168 90,-168 90,-174 84,-180 78,-180"/>
<text text-anchor="middle" x="45" y="-159.5" font-family="sans" font-size="10.00">patch_versions</text>
</g>
<!-- 1&#45;&gt;4 -->
<g id="edge4" class="edge">
<title>1&#45;&gt;4</title>
<path fill="none" stroke="grey" stroke-width="2" d="M45,-215.7C45,-207.98 45,-198.71 45,-190.11"/>
<polygon fill="grey" stroke="grey" stroke-width="2" points="48.5,-190.1 45,-180.1 41.5,-190.1 48.5,-190.1"/>
</g>
<!-- 2 -->
<g id="node3" class="node">
<title>2</title>
<path fill="none" stroke="#d85656" stroke-width="2" d="M62.5,-324C62.5,-324 27.5,-324 27.5,-324 21.5,-324 15.5,-318 15.5,-312 15.5,-312 15.5,-300 15.5,-300 15.5,-294 21.5,-288 27.5,-288 27.5,-288 62.5,-288 62.5,-288 68.5,-288 74.5,-294 74.5,-300 74.5,-300 74.5,-312 74.5,-312 74.5,-318 68.5,-324 62.5,-324"/>
<text text-anchor="middle" x="45" y="-303.5" font-family="sans" font-size="10.00">write_lut</text>
</g>
<!-- 2&#45;&gt;1 -->
<g id="edge2" class="edge">
<title>2&#45;&gt;1</title>
<path fill="none" stroke="grey" stroke-width="2" d="M45,-287.7C45,-279.98 45,-270.71 45,-262.11"/>
<polygon fill="grey" stroke="grey" stroke-width="2" points="48.5,-262.1 45,-252.1 41.5,-262.1 48.5,-262.1"/>
</g>
<!-- 3 -->
<g id="node4" class="node">
<title>3</title>
<path fill="none" stroke="#70d856" stroke-width="2" d="M60,-396C60,-396 30,-396 30,-396 24,-396 18,-390 18,-384 18,-384 18,-372 18,-372 18,-366 24,-360 30,-360 30,-360 60,-360 60,-360 66,-360 72,-366 72,-372 72,-372 72,-384 72,-384 72,-390 66,-396 60,-396"/>
<text text-anchor="middle" x="45" y="-375.5" font-family="sans" font-size="10.00">gunzip</text>
</g>
<!-- 3&#45;&gt;2 -->
<g id="edge3" class="edge">
<title>3&#45;&gt;2</title>
<path fill="none" stroke="grey" stroke-width="2" d="M45,-359.7C45,-351.98 45,-342.71 45,-334.11"/>
<polygon fill="grey" stroke="grey" stroke-width="2" points="48.5,-334.1 45,-324.1 41.5,-334.1 48.5,-334.1"/>
</g>
<!-- 4&#45;&gt;0 -->
<g id="edge1" class="edge">
<title>4&#45;&gt;0</title>
<path fill="none" stroke="grey" stroke-width="2" d="M45,-143.7C45,-135.98 45,-126.71 45,-118.11"/>
<polygon fill="grey" stroke="grey" stroke-width="2" points="48.5,-118.1 45,-108.1 41.5,-118.1 48.5,-118.1"/>
</g>
</g>
</svg>
