<?xml version="1.0" encoding="UTF-8" standalone="no"?>
<!DOCTYPE svg PUBLIC "-//W3C//DTD SVG 1.1//EN"
 "http://www.w3.org/Graphics/SVG/1.1/DTD/svg11.dtd">
<!-- Generated by graphviz version 2.43.0 (0)
 -->
<!-- Title: snakemake_dag Pages: 1 -->
<svg width="98pt" height="332pt"
 viewBox="0.00 0.00 98.00 332.00" xmlns="http://www.w3.org/2000/svg" xmlns:xlink="http://www.w3.org/1999/xlink">
<g id="graph0" class="graph" transform="scale(1 1) rotate(0) translate(4 328)">
<title>snakemake_dag</title>
<polygon fill="white" stroke="transparent" points="-4,4 -4,-328 94,-328 94,4 -4,4"/>
<!-- 0 -->
<g id="node1" class="node">
<title>0</title>
<path fill="none" stroke="#56d8d8" stroke-width="2" d="M60,-36C60,-36 30,-36 30,-36 24,-36 18,-30 18,-24 18,-24 18,-12 18,-12 18,-6 24,0 30,0 30,0 60,0 60,0 66,0 72,-6 72,-12 72,-12 72,-24 72,-24 72,-30 66,-36 60,-36"/>
<text text-anchor="middle" x="45" y="-15.5" font-family="sans" font-size="10.00">all</text>
</g>
<!-- 1 -->
<g id="node2" class="node">
<title>1</title>
<path fill="none" stroke="#d6d856" stroke-width="2" d="M68.5,-180C68.5,-180 21.5,-180 21.5,-180 15.5,-180 9.5,-174 9.5,-168 9.5,-168 9.5,-156 9.5,-156 9.5,-150 15.5,-144 21.5,-144 21.5,-144 68.5,-144 68.5,-144 74.5,-144 80.5,-150 80.5,-156 80.5,-156 80.5,-168 80.5,-168 80.5,-174 74.5,-180 68.5,-180"/>
<text text-anchor="middle" x="45" y="-159.5" font-family="sans" font-size="10.00">merge_luts</text>
</g>
<!-- 4 -->
<g id="node5" class="node">
<title>4</title>
<path fill="none" stroke="#56d89a" stroke-width="2" d="M78,-108C78,-108 12,-108 12,-108 6,-108 0,-102 0,-96 0,-96 0,-84 0,-84 0,-78 6,-72 12,-72 12,-72 78,-72 78,-72 84,-72 90,-78 90,-84 90,-84 90,-96 90,-96 90,-102 84,-108 78,-108"/>
<text text-anchor="middle" x="45" y="-87.5" font-family="sans" font-size="10.00">patch_versions</text>
</g>
<!-- 1&#45;&gt;4 -->
<g id="edge4" class="edge">
<title>1&#45;&gt;4</title>
<path fill="none" stroke="grey" stroke-width="2" d="M45,-143.7C45,-135.98 45,-126.71 45,-118.11"/>
<polygon fill="grey" stroke="grey" stroke-width="2" points="48.5,-118.1 45,-108.1 41.5,-118.1 48.5,-118.1"/>
</g>
<!-- 2 -->
<g id="node3" class="node">
<title>2</title>
<path fill="none" stroke="#d85656" stroke-width="2" d="M62.5,-252C62.5,-252 27.5,-252 27.5,-252 21.5,-252 15.5,-246 15.5,-240 15.5,-240 15.5,-228 15.5,-228 15.5,-222 21.5,-216 27.5,-216 27.5,-216 62.5,-216 62.5,-216 68.5,-216 74.5,-222 74.5,-228 74.5,-228 74.5,-240 74.5,-240 74.5,-246 68.5,-252 62.5,-252"/>
<text text-anchor="middle" x="45" y="-231.5" font-family="sans" font-size="10.00">write_lut</text>
</g>
<!-- 2&#45;&gt;1 -->
<g id="edge2" class="edge">
<title>2&#45;&gt;1</title>
<path fill="none" stroke="grey" stroke-width="2" d="M45,-215.7C45,-207.98 45,-198.71 45,-190.11"/>
<polygon fill="grey" stroke="grey" stroke-width="2" points="48.5,-190.1 45,-180.1 41.5,-190.1 48.5,-190.1"/>
</g>
<!-- 3 -->
<g id="node4" class="node">
<title>3</title>
<path fill="none" stroke="#59d856" stroke-width="2" d="M60,-324C60,-324 30,-324 30,-324 24,-324 18,-318 18,-312 18,-312 18,-300 18,-300 18,-294 24,-288 30,-288 30,-288 60,-288 60,-288 66,-288 72,-294 72,-300 72,-300 72,-312 72,-312 72,-318 66,-324 60,-324"/>
<text text-anchor="middle" x="45" y="-303.5" font-family="sans" font-size="10.00">gunzip</text>
</g>
<!-- 3&#45;&gt;2 -->
<g id="edge3" class="edge">
<title>3&#45;&gt;2</title>
<path fill="none" stroke="grey" stroke-width="2" d="M45,-287.7C45,-279.98 45,-270.71 45,-262.11"/>
<polygon fill="grey" stroke="grey" stroke-width="2" points="48.5,-262.1 45,-252.1 41.5,-262.1 48.5,-262.1"/>
</g>
<!-- 4&#45;&gt;0 -->
<g id="edge1" class="edge">
<title>4&#45;&gt;0</title>
<path fill="none" stroke="grey" stroke-width="2" d="M45,-71.7C45,-63.98 45,-54.71 45,-46.11"/>
<polygon fill="grey" stroke="grey" stroke-width="2" points="48.5,-46.1 45,-36.1 41.5,-46.1 48.5,-46.1"/>
</g>
</g>
</svg>
